<svg width="99" height="99" viewBox="0 0 99 99" fill="none" xmlns="http://www.w3.org/2000/svg">
<circle cx="49.5" cy="49.5" r="49.2183" fill="#8C6046" stroke="black" stroke-width="0.5633"/>
<g clip-path="url(#clip0_32_132)">
<path d="M47.3173 39.1491C44.4304 45.7679 39.1342 53.1612 32.6011 53.1612C26.0679 53.1612 22.8137 43.4744 22.8137 35.3469C22.8137 27.2193 36.5594 21.1235 43.0925 21.1235C49.6257 21.1235 47.3173 31.0216 47.3173 39.1491Z" fill="#D9D7D7"/>
<circle cx="31.8266" cy="37.1777" r="4.08393" fill="black"/>
<circle cx="66.892" cy="37.1777" r="4.08393" fill="black"/>
</g>
<path d="M49.4294 53.2319V65.4837" stroke="black" stroke-width="2.8165" stroke-linecap="round"/>
<path d="M37.1777 65.4834C37.1777 65.4834 40.0357 69.637 42.8107 69.849C45.8981 70.0848 49.4295 65.4834 49.4295 65.4834" stroke="black" stroke-width="2.8165" stroke-linecap="round"/>
<path d="M49.4294 65.4834C49.4294 65.4834 52.2874 69.637 55.0624 69.849C58.1499 70.0848 61.6812 65.4834 61.6812 65.4834" stroke="black" stroke-width="2.8165" stroke-linecap="round"/>
<path d="M51.9387 61.5891C50.8768 63.5948 48.0003 63.5854 46.9517 61.5727L42.8438 53.6883C41.8669 51.8133 43.2274 49.5704 45.3417 49.5704H53.6236C55.746 49.5704 57.1058 51.8289 56.1128 53.7047L51.9387 61.5891Z" fill="black"/>
<defs>
<clipPath id="clip0_32_132">
<rect width="53.091" height="32.0377" fill="white" transform="translate(22.8137 21.1235)"/>
</clipPath>
</defs>
</svg>
